<svg width="250" height="55" viewBox="0 0 250 55" fill="none" xmlns="http://www.w3.org/2000/svg">
<path d="M0 24.589V0.41096H3.45535V24.589H0Z" fill="black"/>
<path d="M9.98675 24.589V0.41096H18.1888C25.6929 0.41096 30.649 4.82877 30.649 12.4658C30.649 20.137 25.6929 24.589 18.1888 24.589H9.98675ZM13.4421 21.6438H17.9445C23.4591 21.6438 27.089 18.4589 27.089 12.4658C27.089 6.5411 23.4242 3.35617 17.9445 3.35617H13.4421V21.6438Z" fill="black"/>
<path d="M40.6671 24.589L49.4975 0.41096H53.1622L61.9926 24.589H58.4325L55.9544 17.637H46.6704L44.1923 24.589H40.6671ZM47.5778 14.8288H55.047L52.3246 7.19178C51.9057 5.92466 51.3473 3.73288 51.3473 3.73288H51.2775C51.2775 3.73288 50.7539 5.92466 50.3351 7.19178L47.5778 14.8288Z" fill="black"/>
<path d="M65.7489 24.589V0.41096H73.5671C75.9405 0.41096 77.1271 0.616439 78.1393 1.06164C80.5127 2.08904 82.0484 4.31507 82.0484 7.39726C82.0484 10.4795 80.3382 13.1507 77.6507 14.0411V14.1096C77.6507 14.1096 77.9299 14.4521 78.3487 15.2055L83.5841 24.589H79.675L74.4746 14.9658H69.2043V24.589H65.7489ZM69.2043 12.0205H74.1604C76.8479 12.0205 78.5581 10.2397 78.5581 7.56849C78.5581 5.82192 77.7903 4.41781 76.2546 3.76712C75.6263 3.49315 74.8585 3.35617 73.2879 3.35617H69.2043V12.0205Z" fill="black"/>
<path d="M85.994 12.363C85.994 5.34247 91.1945 0 98.524 0C101.7 0 105.155 0.958904 107.529 3.18493L105.784 5.71918C103.969 4.14384 101.211 3.08219 98.6636 3.08219C92.9396 3.08219 89.5541 7.22603 89.5541 12.3288C89.5541 17.4658 93.0094 21.8836 98.7334 21.8836C101.491 21.8836 104.318 20.6849 106.307 18.7329L108.157 21.1644C106.063 23.2192 102.992 25 98.6287 25C90.9851 25 85.994 19.4521 85.994 12.363Z" fill="black"/>
<path d="M112.513 24.589V0.41096H115.968V11.0274H128.777V0.41096H132.198V24.589H128.777V13.9726H115.968V24.589H112.513Z" fill="black"/>
<path d="M138.69 24.589V0.41096H142.145V24.589H138.69Z" fill="black"/>
<path d="M154.435 24.589V3.35617H145.954V0.41096H166.337V3.35617H157.856V24.589H154.435Z" fill="black"/>
<path d="M170.15 24.589V0.41096H184.495V3.35617H173.605V10.9247H182.435V13.8699H173.605V21.6438H185.088V24.589H170.15Z" fill="black"/>
<path d="M187.872 12.363C187.872 5.34247 193.073 0 200.402 0C203.579 0 207.034 0.958904 209.407 3.18493L207.662 5.71918C205.847 4.14384 203.09 3.08219 200.542 3.08219C194.818 3.08219 191.433 7.22603 191.433 12.3288C191.433 17.4658 194.888 21.8836 200.612 21.8836C203.369 21.8836 206.196 20.6849 208.186 18.7329L210.036 21.1644C207.941 23.2192 204.87 25 200.507 25C192.864 25 187.872 19.4521 187.872 12.363Z" fill="black"/>
<path d="M220.15 24.589V3.35617H211.669V0.41096H232.052V3.35617H223.571V24.589H220.15Z" fill="black"/>
<path d="M234.05 21.8151L236.004 19.2466C237.505 20.6507 239.878 21.8493 242.217 21.8493C244.8 21.8493 246.545 20.4795 246.545 18.3904C246.545 13.0479 234.643 14.2466 234.643 6.71233C234.643 2.63699 238.133 0 242.705 0C245.149 0 247.766 0.787671 249.581 2.46575L248.011 5.23973C246.649 4.00685 244.52 3.11644 242.566 3.11644C240.053 3.11644 238.133 4.45206 238.133 6.5411C238.133 11.7123 250 10.3425 250 18.1164C250 21.9178 247.173 25 242.147 25C239.18 25 236.179 23.8699 234.05 21.8151Z" fill="black"/>
<path d="M2.61569 49.6667H11.2761V35.8889H5.18743V37.8444C5.18743 41.9333 4.83574 46.5556 2.61569 49.6667ZM0 49.6667H1.53864C4.06641 46.4222 4.26424 41.6667 4.26424 37.8667V35H12.2212V49.6667H13.9357V53.6667H13.0125V50.5556H0.945167V53.6667H0V49.6667Z" fill="black"/>
<path d="M15.716 45.0222C15.716 41.2667 18.2437 39.1778 21.0573 39.1778C24.0466 39.1778 25.5413 41.5556 25.5413 44.2444C25.5413 44.4222 25.5193 44.6444 25.4973 44.8444H16.6831C16.6831 48.0667 18.8372 49.9111 21.387 49.9111C22.6179 49.9111 23.9147 49.4 24.794 48.5111L25.2995 49.2889C24.3324 50.2222 22.7937 50.8222 21.387 50.8222C18.2877 50.8222 15.716 48.5556 15.716 45.0222ZM16.7491 43.9778H24.5742C24.4643 41.2667 22.8597 40.0444 21.0353 40.0444C19.0131 40.0444 17.1447 41.3778 16.7491 43.9778Z" fill="black"/>
<path d="M27.0762 50.6444V49.7778C29.1424 49.4444 29.8457 46.9333 29.8457 42.7556V39.4444H36.0003V50.5556H35.0771V40.3111H30.7689V42.7556C30.7689 48.1778 29.538 50.3556 27.0762 50.6444Z" fill="black"/>
<path d="M38.8071 47.6C38.8071 43.8222 43.6648 43.7778 45.6211 43.7778H46.3465V43.4C46.3465 40.9333 45.0936 40.0889 43.3351 40.0889C42.2141 40.0889 41.0931 40.4667 40.1919 41.1556L39.6644 40.4C40.5216 39.6444 41.9943 39.1778 43.3791 39.1778C45.9069 39.1778 47.2697 40.6 47.2697 43.3778V50.5556H46.3465V49.0889C46.3465 48.4889 46.4344 48.0889 46.4344 48.0889H46.3904C45.8409 49.5333 44.4561 50.8222 42.5438 50.8222C40.7634 50.8222 38.8071 49.8222 38.8071 47.6ZM39.7743 47.5333C39.7743 48.7111 40.7194 49.9556 42.5878 49.9556C44.9837 49.9556 46.3465 47.4444 46.3465 45.2444V44.6444H45.6431C43.7747 44.6444 39.7743 44.6444 39.7743 47.5333Z" fill="black"/>
<path d="M50.2109 45.0222C50.2109 41.2667 52.7387 39.1778 55.5522 39.1778C58.5416 39.1778 60.0363 41.5556 60.0363 44.2444C60.0363 44.4222 60.0143 44.6444 59.9923 44.8444H51.1781C51.1781 48.0667 53.3322 49.9111 55.8819 49.9111C57.1129 49.9111 58.4097 49.4 59.2889 48.5111L59.7945 49.2889C58.8274 50.2222 57.2887 50.8222 55.8819 50.8222C52.7827 50.8222 50.2109 48.5556 50.2109 45.0222ZM51.244 43.9778H59.0691C58.9592 41.2667 57.3547 40.0444 55.5303 40.0444C53.508 40.0444 51.6397 41.3778 51.244 43.9778Z" fill="black"/>
<path d="M62.6262 50.5556L63.5054 39.4444H64.3847L68.0994 46.8C68.4511 47.5111 68.8467 48.4222 68.8467 48.4222H68.8907C68.8907 48.4222 69.2644 47.5333 69.638 46.8L73.3747 39.4444H74.254L75.1332 50.5556H74.21L73.5946 42.8444C73.5506 42.3111 73.5726 40.9333 73.5726 40.9333H73.5286C73.5286 40.9333 73.3088 41.5556 72.8032 42.5333L69.3523 49.3333H68.4071L64.9562 42.5778C64.4946 41.6889 64.2308 40.9333 64.2308 40.9333H64.1868C64.1868 40.9333 64.2088 42.3111 64.1649 42.8444L63.5494 50.5556H62.6262Z" fill="black"/>
<path d="M84.0371 50.5556V39.4444H90.2796V40.2889H84.9603V50.5556H84.0371Z" fill="black"/>
<path d="M91.3597 44.9333C91.3597 41.6889 93.9095 39.1778 97.0527 39.1778C100.196 39.1778 102.746 41.6889 102.746 44.9333C102.746 48.2444 100.196 50.8222 97.0527 50.8222C93.9095 50.8222 91.3597 48.2444 91.3597 44.9333ZM92.3269 44.9333C92.3269 47.7556 94.437 49.9111 97.0527 49.9111C99.6684 49.9111 101.779 47.7556 101.779 44.9333C101.779 42.1778 99.6684 40.0889 97.0527 40.0889C94.437 40.0889 92.3269 42.1778 92.3269 44.9333Z" fill="black"/>
<path d="M105.782 55V39.4444H106.705V40.7778C106.705 41.2889 106.639 41.6667 106.639 41.6667H106.683C107.342 40.1111 108.837 39.1778 110.639 39.1778C113.585 39.1778 115.387 41.5556 115.387 45C115.387 48.5333 113.343 50.8222 110.507 50.8222C108.837 50.8222 107.364 49.8889 106.661 48.3111H106.617C106.617 48.3111 106.705 48.7111 106.705 49.2889V55H105.782ZM106.683 45.0222C106.683 47.4889 108.046 49.9111 110.507 49.9111C112.661 49.9111 114.42 48.1111 114.42 45C114.42 42 112.837 40.0889 110.595 40.0889C108.573 40.0889 106.683 41.5333 106.683 45.0222Z" fill="black"/>
<path d="M117.698 44.9333C117.698 41.6889 120.248 39.1778 123.391 39.1778C126.534 39.1778 129.084 41.6889 129.084 44.9333C129.084 48.2444 126.534 50.8222 123.391 50.8222C120.248 50.8222 117.698 48.2444 117.698 44.9333ZM118.665 44.9333C118.665 47.7556 120.775 49.9111 123.391 49.9111C126.006 49.9111 128.117 47.7556 128.117 44.9333C128.117 42.1778 126.006 40.0889 123.391 40.0889C120.775 40.0889 118.665 42.1778 118.665 44.9333Z" fill="black"/>
<path d="M132.545 49.6889H138.875V40.2889H134.523V41.0222C134.523 42.6889 134.391 46.9556 132.545 49.6889ZM130.105 49.6889H131.446C133.6 46.9333 133.6 42.3556 133.6 41.0222V39.4444H139.799V49.6889H141.337V53.2222H140.414V50.5556H131.028V53.2222H130.105V49.6889Z" fill="black"/>
<path d="M149.442 50.5556V39.4444H150.365V44.3556H152.278L155.883 39.4444H157.048L153.069 44.7333V44.7778L157.487 50.5556H156.278L152.278 45.2222H150.365V50.5556H149.442Z" fill="black"/>
<path d="M159.789 55V39.4444H160.712V40.7778C160.712 41.2889 160.646 41.6667 160.646 41.6667H160.69C161.349 40.1111 162.844 39.1778 164.646 39.1778C167.592 39.1778 169.394 41.5556 169.394 45C169.394 48.5333 167.35 50.8222 164.514 50.8222C162.844 50.8222 161.371 49.8889 160.668 48.3111H160.624C160.624 48.3111 160.712 48.7111 160.712 49.2889V55H159.789ZM160.69 45.0222C160.69 47.4889 162.053 49.9111 164.514 49.9111C166.669 49.9111 168.427 48.1111 168.427 45C168.427 42 166.844 40.0889 164.602 40.0889C162.58 40.0889 160.69 41.5333 160.69 45.0222Z" fill="black"/>
<path d="M171.485 47.6C171.485 43.8222 176.343 43.7778 178.299 43.7778H179.024V43.4C179.024 40.9333 177.772 40.0889 176.013 40.0889C174.892 40.0889 173.771 40.4667 172.87 41.1556L172.342 40.4C173.2 39.6444 174.672 39.1778 176.057 39.1778C178.585 39.1778 179.948 40.6 179.948 43.3778V50.5556H179.024V49.0889C179.024 48.4889 179.112 48.0889 179.112 48.0889H179.068C178.519 49.5333 177.134 50.8222 175.222 50.8222C173.441 50.8222 171.485 49.8222 171.485 47.6ZM172.452 47.5333C172.452 48.7111 173.397 49.9556 175.266 49.9556C177.662 49.9556 179.024 47.4444 179.024 45.2444V44.6444H178.321C176.453 44.6444 172.452 44.6444 172.452 47.5333Z" fill="black"/>
<path d="M182.889 45.0222C182.889 41.4889 185.505 39.1778 188.56 39.1778C189.967 39.1778 191.527 39.6889 192.494 40.7556L191.923 41.5111C191.132 40.6667 189.835 40.0889 188.56 40.0889C185.988 40.0889 183.856 42.0222 183.856 45.0222C183.856 47.9778 185.988 49.9111 188.56 49.9111C189.901 49.9111 191.329 49.3556 192.231 48.3111L192.714 49.0889C191.791 50.1333 190.208 50.8222 188.56 50.8222C185.461 50.8222 182.889 48.5556 182.889 45.0222Z" fill="black"/>
<path d="M195.529 50.5556V39.4444H196.452V47.3556C196.452 48.1111 196.386 49.1556 196.386 49.1556H196.43C196.43 49.1556 197.199 48.0444 197.683 47.3556L203.683 39.4444H204.541V50.5556H203.617V42.6222C203.617 41.8667 203.683 40.8889 203.683 40.8889H203.639C203.639 40.8889 202.87 41.9333 202.387 42.6222L196.386 50.5556H195.529Z" fill="black"/>
<path d="M208.365 50.5556V39.4444H211.816C214.058 39.4444 215.421 40.4222 215.421 42.2667C215.421 43.4667 214.783 44.3333 213.662 44.7111V44.7556C215.113 45.0222 216.014 46.0889 216.014 47.4889C216.014 49.2889 214.629 50.5556 212.102 50.5556H208.365ZM209.288 44.3778H211.86C213.552 44.3778 214.432 43.6222 214.432 42.2667C214.432 40.9111 213.53 40.2889 211.772 40.2889H209.288V44.3778ZM209.288 49.6889H212.014C214.102 49.6889 215.047 48.8444 215.047 47.4889C215.047 46 213.926 45.2444 211.992 45.2444H209.288V49.6889Z" fill="black"/>
<path d="M228.264 50.5556V39.4444H229.187V50.5556H228.264ZM219.076 50.5556V39.4444H219.999V43.8889H222.527C224.22 43.8889 226.242 44.5333 226.242 47.2444C226.242 49.2 225.011 50.5556 222.483 50.5556H219.076ZM219.999 49.6889H222.483C224.483 49.6889 225.275 48.6889 225.275 47.2444C225.275 45.7333 224.461 44.7556 222.527 44.7556H219.999V49.6889Z" fill="black"/>
<path d="M232.59 50.5556L233.469 39.4444H234.348L238.063 46.8C238.415 47.5111 238.81 48.4222 238.81 48.4222H238.854C238.854 48.4222 239.228 47.5333 239.601 46.8L243.338 39.4444H244.217L245.097 50.5556H244.173L243.558 42.8444C243.514 42.3111 243.536 40.9333 243.536 40.9333H243.492C243.492 40.9333 243.272 41.5556 242.767 42.5333L239.316 49.3333H238.371L234.92 42.5778C234.458 41.6889 234.194 40.9333 234.194 40.9333H234.15C234.15 40.9333 234.172 42.3111 234.128 42.8444L233.513 50.5556H232.59Z" fill="black"/>
<path d="M248.857 46.6667V35H249.802V46.6667H248.857ZM248.703 50.5556V49.2H250V50.5556H248.703Z" fill="black"/>
</svg>
